<svg xmlns="http://www.w3.org/2000/svg" xmlns:xlink="http://www.w3.org/1999/xlink" viewBox="0 0 562.23 555.54"><defs><style>.cls-1{isolation:isolate;}.cls-2{fill:url(#linear-gradient);}.cls-3{fill:#a26bad;}.cls-4{fill:url(#linear-gradient-2);}.cls-5{fill:url(#linear-gradient-3);}.cls-6{fill:url(#linear-gradient-4);}.cls-7{fill:url(#linear-gradient-5);}.cls-11,.cls-16,.cls-25,.cls-26,.cls-8{stroke-miterlimit:10;}.cls-8{fill:url(#linear-gradient-6);stroke:url(#linear-gradient-7);}.cls-9{fill:url(#linear-gradient-8);}.cls-10{fill:url(#linear-gradient-9);}.cls-11{fill:url(#linear-gradient-10);stroke:url(#linear-gradient-11);}.cls-12{fill:url(#linear-gradient-12);}.cls-13{fill:url(#linear-gradient-13);}.cls-14{fill:url(#linear-gradient-14);}.cls-15{fill:url(#linear-gradient-15);}.cls-16{fill:url(#linear-gradient-16);stroke:url(#linear-gradient-17);}.cls-17{fill:#72347c;}.cls-18{fill:#2c9883;}.cls-19{fill:#a58aaa;}.cls-20{fill:url(#linear-gradient-18);}.cls-21{fill:url(#linear-gradient-19);}.cls-22{fill:url(#linear-gradient-20);}.cls-23{fill:url(#linear-gradient-21);}.cls-24{fill:url(#linear-gradient-22);}.cls-25{fill:url(#linear-gradient-23);stroke:url(#linear-gradient-24);}.cls-26{fill:url(#linear-gradient-25);stroke:url(#linear-gradient-26);}.cls-27{fill:url(#linear-gradient-27);}.cls-28{opacity:0.15;mix-blend-mode:color-burn;fill:url(#linear-gradient-28);}.cls-29{mix-blend-mode:overlay;fill:url(#linear-gradient-29);}</style><linearGradient id="linear-gradient" x1="0.27" y1="163.93" x2="97.42" y2="163.93" gradientUnits="userSpaceOnUse"><stop offset="0" stop-color="#2c9883"/><stop offset="1" stop-color="#a26bad"/></linearGradient><linearGradient id="linear-gradient-2" x1="0.27" y1="156.34" x2="88.92" y2="156.34" gradientUnits="userSpaceOnUse"><stop offset="0" stop-color="#fc6c40"/><stop offset="1" stop-color="#a26bad"/></linearGradient><linearGradient id="linear-gradient-3" x1="88.92" y1="163.99" x2="198.88" y2="163.99" xlink:href="#linear-gradient"/><linearGradient id="linear-gradient-4" x1="0" y1="305.98" x2="97.53" y2="305.98" xlink:href="#linear-gradient"/><linearGradient id="linear-gradient-5" x1="0" y1="330.84" x2="80.32" y2="330.84" xlink:href="#linear-gradient-2"/><linearGradient id="linear-gradient-6" x1="30.6" y1="449.4" x2="133.86" y2="449.4" gradientUnits="userSpaceOnUse"><stop offset="0" stop-color="#2c9883"/><stop offset="1" stop-color="#fc6c40"/></linearGradient><linearGradient id="linear-gradient-7" x1="29.88" y1="449.85" x2="135.06" y2="449.85" xlink:href="#linear-gradient"/><linearGradient id="linear-gradient-8" x1="80.42" y1="313.65" x2="143.43" y2="313.65" xlink:href="#linear-gradient"/><linearGradient id="linear-gradient-9" x1="80.32" y1="464.7" x2="283.03" y2="464.7" xlink:href="#linear-gradient"/><linearGradient id="linear-gradient-10" x1="172.91" y1="389.84" x2="223.19" y2="462.98" xlink:href="#linear-gradient-6"/><linearGradient id="linear-gradient-11" x1="78.33" y1="445.72" x2="283.7" y2="445.72" xlink:href="#linear-gradient"/><linearGradient id="linear-gradient-12" x1="97.53" y1="200.8" x2="252.43" y2="200.8" xlink:href="#linear-gradient-2"/><linearGradient id="linear-gradient-13" x1="198.88" y1="145.34" x2="365.26" y2="145.34" xlink:href="#linear-gradient-2"/><linearGradient id="linear-gradient-14" x1="181.26" y1="313.84" x2="328.53" y2="279.07" xlink:href="#linear-gradient"/><linearGradient id="linear-gradient-15" x1="207.49" y1="35.82" x2="314.17" y2="35.82" xlink:href="#linear-gradient"/><linearGradient id="linear-gradient-16" x1="451.21" y1="87.88" x2="356.53" y2="58.58" xlink:href="#linear-gradient-6"/><linearGradient id="linear-gradient-17" x1="264.93" y1="51.33" x2="461.54" y2="51.33" xlink:href="#linear-gradient"/><linearGradient id="linear-gradient-18" x1="304.06" y1="280.99" x2="489.63" y2="280.99" xlink:href="#linear-gradient"/><linearGradient id="linear-gradient-19" x1="265.82" y1="440.8" x2="393.94" y2="440.8" xlink:href="#linear-gradient"/><linearGradient id="linear-gradient-20" x1="216.1" y1="535.46" x2="325.1" y2="535.46" xlink:href="#linear-gradient"/><linearGradient id="linear-gradient-21" x1="283.03" y1="440.8" x2="462.79" y2="440.8" xlink:href="#linear-gradient-2"/><linearGradient id="linear-gradient-22" x1="393.94" y1="313.5" x2="489.63" y2="313.5" xlink:href="#linear-gradient-2"/><linearGradient id="linear-gradient-23" x1="470.53" y1="330.48" x2="530.55" y2="252.19" xlink:href="#linear-gradient-6"/><linearGradient id="linear-gradient-24" x1="462.13" y1="313.22" x2="551.34" y2="313.22" xlink:href="#linear-gradient"/><linearGradient id="linear-gradient-25" x1="489.63" y1="265.7" x2="550.76" y2="265.7" xlink:href="#linear-gradient-6"/><linearGradient id="linear-gradient-26" x1="488.84" y1="266.99" x2="551.52" y2="266.99" xlink:href="#linear-gradient"/><linearGradient id="linear-gradient-27" x1="462.79" y1="409.24" x2="550.76" y2="409.24" xlink:href="#linear-gradient"/><linearGradient id="linear-gradient-28" x1="0" y1="277.77" x2="562.23" y2="277.77" xlink:href="#linear-gradient-2"/><linearGradient id="linear-gradient-29" x1="0" y1="277.77" x2="562.23" y2="277.77" xlink:href="#linear-gradient"/></defs><title>polygon ball</title><g class="cls-1"><g id="Layer_2" data-name="Layer 2"><g id="shapes"><path class="cls-2" d="M.27,236.18,88.92,76.49l8.49,174.86Z"/><path class="cls-3" d="M88.92,76.49,207.49,0,265.6,71.64,198.81,94.72Z"/><path class="cls-4" d="M88.92,76.49,41.12,130,.27,236.18Z"/><path class="cls-5" d="M88.92,76.5l8.61,175L198.88,94.66Z"/><polygon class="cls-6" points="0 236.18 80.32 375.78 97.53 251.47 0 236.18"/><polygon class="cls-7" points="0 236.18 30.6 425.5 80.32 375.78 0 236.18"/><polygon class="cls-8" points="80.32 375.78 30.6 425.5 133.87 523.03 80.32 375.78"/><path class="cls-9" d="M97.53,251.47,80.42,375.82l63-68.89Z"/><polygon class="cls-3" points="80.32 375.78 143.43 306.93 265.82 404.46 80.32 375.78"/><polygon class="cls-10" points="80.32 375.78 133.87 523.03 216.1 553.63 283.03 515.38 80.32 375.78"/><path class="cls-11" d="M80.42,375.82,283,515.38,265.82,404.46Z"/><polygon class="cls-12" points="198.88 94.66 97.53 251.47 143.43 306.93 252.43 186.45 198.88 94.66"/><polygon class="cls-13" points="198.88 94.66 265.82 71.71 365.26 218.96 252.43 186.45 198.88 94.66"/><polygon class="cls-14" points="143.43 306.93 252.43 186.45 365.26 218.96 304.06 371.95 265.82 404.46 143.43 306.93"/><path class="cls-15" d="M207.49,0,314.17,4.25,265.6,71.64Z"/><path class="cls-16" d="M265.82,71.71,314.17,4.25,460.88,67.89l-13.39,30.6Z"/><path class="cls-17" d="M314.17,4.25l85.51,15.83,61.2,47.81Z"/><polygon class="cls-18" points="265.82 71.71 365.26 218.96 489.56 190.28 447.49 98.49 265.82 71.71"/><polygon class="cls-19" points="447.49 98.49 489.56 190.28 539.28 197.93 460.88 67.89 447.49 98.49"/><path class="cls-20" d="M365.26,219l-61.2,153,89.88-5.74L489.63,190Z"/><polygon class="cls-21" points="304.06 371.95 265.82 404.46 283.03 515.38 393.94 366.22 304.06 371.95"/><polygon class="cls-22" points="283.03 515.38 216.1 553.63 325.1 555.54 283.03 515.38"/><path class="cls-23" d="M393.94,366.22,283,515.38,462.79,437Z"/><path class="cls-24" d="M489.63,190,393.94,366.22,462.79,437Z"/><path class="cls-25" d="M489.63,190,462.79,437l88-95.62Z"/><path class="cls-26" d="M489.63,190l61.12,151.32L539.28,197.93Z"/><polygon class="cls-17" points="539.28 197.93 550.76 341.36 562.23 266.77 539.28 197.93"/><polygon class="cls-3" points="283.03 515.38 462.79 436.97 485.74 477.13 325.1 555.54 283.03 515.38"/><polygon class="cls-27" points="462.79 436.97 550.76 341.36 485.74 477.13 462.79 436.97"/><polygon class="cls-17" points="325.1 555.54 485.74 477.13 439.84 519.2 325.1 555.54"/></g><g id="filter_1" data-name="filter 1"><path class="cls-28" d="M539.28,197.93l-78.41-130-61.2-47.81L314.17,4.25,207.49,0,88.92,76.49h0L41.12,130,.27,236.18H0L30.6,425.5,133.86,523l82.23,30.6,109,1.91L439.84,519.2l45.9-42.07,65-135.78,11.47-74.58Z"/></g><g id="filter_2" data-name="filter 2"><path class="cls-29" d="M539.28,197.93l-78.41-130-61.2-47.81L314.17,4.25,207.49,0,88.92,76.49h0L41.12,130,.27,236.18H0L30.6,425.5,133.86,523l82.23,30.6,109,1.91L439.84,519.2l45.9-42.07,65-135.78,11.47-74.58Z"/></g></g></g></svg>