<?xml version="1.0" encoding="utf-8"?>
<!-- Generator: Adobe Illustrator 21.1.0, SVG Export Plug-In . SVG Version: 6.00 Build 0)  -->
<svg version="1.1" id="Layer_1" xmlns="http://www.w3.org/2000/svg" xmlns:xlink="http://www.w3.org/1999/xlink" x="0px" y="0px"
	 viewBox="0 0 562 201" style="enable-background:new 0 0 562 201;" xml:space="preserve">
<style type="text/css">
	.st0{fill:none;stroke:#FFFFFF;stroke-linejoin:bevel;}
	.st1{fill:none;stroke:#FFFFFF;}
</style>
<title>Graphics middle</title>
<desc>Created with Sketch.</desc>
<g id="Page-1">
	<g id="Desktop-HD" transform="translate(-439.000000, -2029.000000)">
		
			<g id="Graphics-middle" transform="translate(720.500000, 2130.000000) scale(-1, 1) rotate(180.000000) translate(-720.500000, -2130.000000) translate(440.000000, 2030.000000)">
			<path id="Stroke-3" class="st0" d="M190.6,123.6c-0.2,12.6-0.4,22.1-0.6,28.4c19-12.3,38-24.5,57-36.8
				c16.9-14.5,42.2-36.2,76-65.2l-97,31.3L190.6,123.6z"/>
			<path id="Stroke-5" class="st0" d="M190,151.3c2.9,9.4,5.9,18.8,8.8,28.2c3.1,3.2,6.1,6.4,9.2,9.5c6.4-2.7,12.8-5.3,19.2-8
				l8.9-8.9c3.6-19,7.2-38.1,10.9-57.1C228,127.1,209,139.2,190,151.3z"/>
			<path id="Stroke-7" class="st0" d="M107.9,30l28.7-30c3.1,3.2,6.1,6.4,9.2,9.6c6.1,9.5,12.1,19,18.2,28.5
				c-19.3,12.3-38.7,24.6-58,36.9V47.5C106.6,41.7,107.3,35.8,107.9,30z"/>
			<path id="Stroke-23" class="st0" d="M344.5,10c-7.7,14.3-14.9,27.6-21.5,40c9.2-2.8,18.5-5.5,27.7-8.3c2.4,0,5.8-0.3,10.2-1
				L375,22.2L344.5,10z"/>
			<polygon id="Stroke-25" class="st0" points="49.6,63.1 78,45 87,63.8 86.6,82.4 49,91 			"/>
			<path id="Stroke-27" class="st0" d="M78,45.5l9.7-9.5l9.3,9.9l-0.5,9.8c-3.1,3.1-6.3,6.2-9.4,9.3L78,45.5z"/>
			<path id="Stroke-29" class="st0" d="M87,64c5.8-5.8,13.2-12.2,19-18v27.4c-5.9,2.9-11.9,5.7-17.8,8.6L87,64z"/>
			<path id="Stroke-31" class="st0" d="M164,38l-10.1,36.7l-47,8.3c-0.3-2.9-0.6-5.9-0.9-8.8C125.3,62.1,144.7,50.1,164,38z"/>
			<path id="Stroke-33" class="st0" d="M49,91.9L86.4,83l18.6,0.4c-9.4,3.5-18.8,7.1-28.1,10.6C67.6,93.3,58.3,92.6,49,91.9z"/>
			<path id="Stroke-35" class="st0" d="M77,93.8c3.1,2.7,6.2,5.4,9.3,8.2l19.1-9.1l28.5-8.9L153,75l-47.4,8.5
				C96,87,86.5,90.4,77,93.8z"/>
			<path id="Stroke-37" class="st0" d="M106,93l28.5-8.9l19.1-9.1l9.4,0.2c-0.8,18.3-1.6,36.5-2.4,54.8c-8.9-2.7-17.9-5.3-26.8-8
				L106,93z"/>
			<path id="Stroke-39" class="st0" d="M162.5,75c-1.4,17.4-2.3,35.5-2.4,54.3c0,4.6,0,9.2,0,13.7c3.6-3.9,7.2-7.7,10.8-11.5l19.2-9
				l-8.6-47.1L162.5,75z"/>
			<path id="Stroke-49" class="st0" d="M247.5,115c-3.5,18.9-7,37.8-10.5,56.6l27,9.4l10.6-10.4l0.5-17.2L247.5,115z"/>
			<polygon id="Stroke-55" class="st0" points="228,181.1 236.8,172 264,181.4 263.8,191 235.5,190.4 			"/>
			<path id="Stroke-59" class="st0" d="M247,114.4c25.3-21.5,50.6-42.9,75.9-64.4c1.8,18.8,4.5,44.3,8.1,76.5l-14.3,14.1l-16.1,22.5
				L274,171l0.4-18.7L247,114.4z"/>
			<path id="Stroke-61" class="st0" d="M323,50.4c0,0,7.6,20.9,22.8,62.6c10.4,0,17.8,0,22.2,0c-1.8-21.9-5.1-21.6-6.9-43.5
				c-3.2-9.2-6.5-18.4-9.7-27.5C332.5,47.6,323,50.4,323,50.4z"/>
			<path id="Stroke-69" class="st0" d="M361,68.5l21.1,44.5l21.4-4.6L447,78l-0.9-26C427.2,55.7,398.8,61.2,361,68.5z"/>
			<path id="Stroke-77" class="st0" d="M336,122.3l9.5-9.3c11.8,0.1,23.7,0.1,35.5,0.2c-2.7,7.4-5.4,14.8-8.2,22.2
				c-6.2,2.2-12.5,4.4-18.7,6.6c0.1-3.3,0.1-6.6,0.2-9.9C348.3,128.9,342.1,125.6,336,122.3z"/>
			<polygon id="Stroke-79" class="st0" points="316,142 335.3,123 354,133.1 			"/>
			<polygon id="Stroke-81" class="st0" points="264.4,181 274.2,171.1 300,163 283,190.9 264,200 			"/>
			<polygon id="Stroke-83" class="st0" points="297,168.3 316.3,140.6 354,132 353.8,141.3 334.7,159.7 315.6,178 			"/>
			<path id="Stroke-85" class="st0" d="M373,135.2c2.8-7.4,5.5-14.8,8.3-22.2c3.6,6.6,7.1,13.1,10.7,19.7l-9.6,9.3
				c-3.1-0.4-6.2-0.8-9.4-1.2V135.2z"/>
			<polygon id="Stroke-87" class="st0" points="316,177.6 345.1,151 364,160.4 354.3,169.3 335.1,178 			"/>
			<path id="Stroke-89" class="st0" d="M345,151.3l9.8-9.2c6.4-2,12.8-4.1,19.2-6.1v16.4c-3.3,2.9-6.7,5.7-10,8.6L345,151.3z"/>
			<path id="Stroke-93" class="st0" d="M354,168.2c6.5-5.7,12.9-11.5,19.4-17.2c18.5,6.2,37.1,12.4,55.6,18.6l-37.7,8.4L354,168.2z"
				/>
			<path id="Stroke-95" class="st0" d="M373,140.9c3.1,0.4,6.2,0.8,9.3,1.2l9.5-9.1l37,19.4l9.2,9.5l-9.5,9.1
				c-18.5-6.4-37-12.8-55.5-19.2V140.9z"/>
			<polygon id="Stroke-97" class="st0" points="453,148 491.2,101.1 510,92 493.9,115.8 			"/>
			<path id="Stroke-117" class="st0" d="M191,122c-9.2,4-15.7,6.9-19.5,8.7c-6.4,6.5-13.1,14.9-19.5,21.3c8.3-0.4,21.1-0.7,38.4-0.9
				L191,122z"/>
			<polygon id="Path-10" class="st1" points="302,35 266.9,35 182,75.2 226.6,81 253.1,41.5 287.1,61.3 			"/>
			<polyline id="Path-11" class="st1" points="228,53 195,41.3 164,38 			"/>
			<polyline id="Path-12" class="st1" points="253,41.3 216.5,31 194,42 			"/>
			<polyline id="Path-13" class="st1" points="216,31 174.9,10 157,12.1 157,27.4 			"/>
			<polygon id="Path-15" class="st1" points="561,61.5 541.9,56.7 497,42 505.2,67.8 520.7,81 545.8,75.1 			"/>
			<polyline id="Path-16" class="st1" points="506,68 472.1,68 445,110 			"/>
			<polyline id="Path-17" class="st1" points="497,41 424,23 444.7,51.7 471.6,67 			"/>
			<polyline id="Path-18" class="st1" points="424,23 388.5,48 360,41.3 			"/>
			<polyline id="Path-19" class="st1" points="543,57 518.5,34.9 491,24 497.3,42.6 			"/>
			<polygon id="Path-20" class="st1" points="491,22.9 477.2,7 461,22.9 469,34 			"/>
			<polyline id="Path-21" class="st1" points="476,7 447.6,11.5 424,22 			"/>
			<polyline id="Path-22" class="st1" points="87,35.1 61.1,33 36,49.7 49.3,63 			"/>
			<polyline id="Path-23" class="st1" points="37,50 20,57.7 30.4,80.4 50,93 			"/>
			<polygon id="Path-24" class="st1" points="48,42.5 28.8,40 17,50.8 20.1,58 36.9,50 			"/>
			<polygon id="Path-25" class="st1" points="29,40 11.3,41.4 0,48.3 3.2,52 17.2,50.1 			"/>
			<path id="Path-29" class="st1" d="M522,80l-12,12"/>
			<polyline id="Path-30" class="st1" points="479,114.3 444.8,108.8 422.5,95 403.2,108.8 399,136.3 427.2,132.1 428.5,152 
				452.4,147.1 444.8,108.8 427.2,132.1 412.4,102.8 			"/>
			<polyline id="Path-31" class="st1" points="545,75 527,87.8 509,92 			"/>
			<polyline id="Path-33" class="st1" points="301,35 321.4,26.6 336,26 			"/>
			<path id="Path-34" class="st1" d="M374.9,22.5h49.2"/>
		</g>
	</g>
</g>
</svg>
