<?xml version="1.0" encoding="UTF-8"?>
<svg width="186px" height="706px" viewBox="0 0 186 706" version="1.1" xmlns="http://www.w3.org/2000/svg" xmlns:xlink="http://www.w3.org/1999/xlink">
    <!-- Generator: Sketch 46.2 (44496) - http://www.bohemiancoding.com/sketch -->
    <title>Graphics Top2</title>
    <desc>Created with Sketch.</desc>
    <defs></defs>
    <g id="Page-1" stroke="none" stroke-width="1" fill="none" fill-rule="evenodd">
        <g id="Artboard" transform="translate(-908.000000, -156.000000)">
            <g id="Graphics-Top2" transform="translate(995.500000, 509.000000) scale(1, -1) rotate(90.000000) translate(-995.500000, -509.000000) translate(643.500000, 411.500000)">
                <path d="M233.505164,1 C205.98914,22.6107737 184.91931,39.194881 170.295673,50.752322 C168.30591,39.6889294 165.320551,23.0941059 161.339595,0.967851504 L233.505164,1 Z" id="Stroke-1" stroke="#FFFFFF" stroke-linejoin="bevel"></path>
                <path d="M233.744215,1.01094319 C205.765481,23.2727058 184.78143,39.9690278 170.792063,51.0999091 C170.5696,62.5426336 170.346303,73.9845201 170.123839,85.4272446 C193.177574,70.6194072 216.230475,55.8098941 239.283376,41.0020567 C250.239349,31.6421922 265.657635,18.3081733 285.538236,1 L233.744215,1.01094319 Z" id="Stroke-3" stroke="#FFFFFF" stroke-linejoin="bevel"></path>
                <path d="M170.123839,85.0794368 C173.703078,96.5071002 177.283153,107.934764 180.863227,119.362427 C184.591183,123.220978 188.319975,127.080361 192.048767,130.93808 C199.828014,127.700589 207.606426,124.461435 215.385673,121.223112 L226.247042,110.414845 C230.655923,87.2768405 235.064804,64.138836 239.473684,41 C216.357348,55.6925913 193.241011,70.3868454 170.123839,85.0794368 Z" id="Stroke-5" stroke="#FFFFFF" stroke-linejoin="bevel"></path>
                <polygon id="Stroke-25" stroke="#FFFFFF" stroke-linejoin="bevel" points="46.1446741 1 45.5931798 3.0199486 0.235995295 13.5860734 0.235995295 0.86678948"></polygon>
                <path d="M68.9549821,1 C68.9549821,1 61.4224678,1 46.3574392,1 C61.4224678,1 68.9549821,1 68.9549821,1 Z" id="Stroke-29" stroke="#FFFFFF" stroke-linejoin="bevel"></path>
                <path d="M82.4747317,1 L69.3472954,3.07430341 C69.3019382,2.62144787 69.2339043,1.94219222 69.1431936,1.03653644 L82.4747317,1 Z" id="Stroke-31" stroke="#FFFFFF" stroke-linejoin="bevel"></path>
                <path d="M0,13.6294125 L45.5853013,3.07430341 L68.2662539,3.52297521 C56.8340107,7.70694463 45.4017676,11.8925913 33.9695244,16.0773994 C22.6469033,15.2614037 11.3234516,14.4454081 0,13.6294125 Z" id="Stroke-33" stroke="#FFFFFF" stroke-linejoin="bevel"></path>
                <path d="M34.6749226,16.0121261 C38.4339617,19.284935 42.1946779,22.5569125 45.953717,25.8297214 L69.078977,14.9195268 L103.654926,4.23134446 L110.480292,1 L82.7759319,1 L69.3036976,3.56447639 C57.7599341,7.71369297 46.2178476,11.8629096 34.6749226,16.0121261 Z" id="Stroke-35" stroke="#FFFFFF" stroke-linejoin="bevel"></path>
                <path d="M68.2662539,14.9754129 L102.940756,4.25957367 L110.6015,1 L137.399443,1 C136.41893,22.9585503 135.654232,37.463336 134.673719,59.4210526 C123.795576,56.2139705 112.919115,53.0052211 102.040971,49.7973053 L68.2662539,14.9754129 Z" id="Stroke-37" stroke="#FFFFFF" stroke-linejoin="bevel"></path>
                <path d="M137.366342,1 C137.366342,1 136.37853,25.8916409 134.402907,75.6749226 C140.127113,69.4579011 144.420129,64.7952736 147.281956,61.6870401 L170.123839,50.7746786 L161.189696,1 C145.30746,1 137.366342,1 137.366342,1 Z" id="Stroke-39" stroke="#FFFFFF" stroke-linejoin="bevel"></path>
                <path d="M45.5108359,26.0341068 L68.2662539,14.993808 C67.9824197,18.7280391 67.6994105,22.4631116 67.4164014,26.1965012 C63.7966901,30.04769 60.1769788,33.8988787 56.5572675,37.749226 L45.5108359,26.0341068 Z" id="Stroke-41" stroke="#FFFFFF" stroke-linejoin="bevel"></path>
                <path d="M45.5108359,25.8297214 L56.214967,60.243025 L67.1406088,83.2600619 C74.3780138,79.0537504 81.6162515,74.8474388 88.8544892,70.6411273 C85.6300924,63.5254502 82.4056957,56.4097732 79.1804662,49.292427 L55.5446056,37.2577023 C52.1994605,33.4486535 48.855981,29.6387702 45.5108359,25.8297214 Z" id="Stroke-43" stroke="#FFFFFF" stroke-linejoin="bevel"></path>
                <path d="M69.3123068,14.993808 C69.0242794,18.6779667 68.7370893,22.3629555 68.4498992,26.046284 C64.776713,29.845832 61.1035268,33.64538 57.4303406,37.4440979 C64.9776623,41.3706572 72.5258214,45.2980467 80.0739805,49.2237759 L102.941176,49.6687307 L69.3123068,14.993808 Z" id="Stroke-45" stroke="#FFFFFF" stroke-linejoin="bevel"></path>
                <path d="M124.335259,85.4272446 C127.678614,82.083965 131.02197,78.7406854 134.365325,75.3974058 L134.365325,58.6810079 C123.552914,55.4647729 112.742174,52.2485379 101.929762,49.0314671 C94.3211211,48.8826912 86.7116442,48.7339153 79.1021672,48.5851393 L87.9762684,69.9645765 C100.095932,75.1190778 112.215595,80.2727433 124.335259,85.4272446 Z" id="Stroke-47" stroke="#FFFFFF" stroke-linejoin="bevel"></path>
                <path d="M239.362237,41 C235.065021,63.7089405 230.767804,86.4162126 226.470588,109.125153 L260.850852,121.185759 L272.613077,110.017728 L273.065015,87.2353795 L239.362237,41 Z" id="Stroke-49" stroke="#FFFFFF" stroke-linejoin="bevel"></path>
                <path d="M166.582958,110.975153 C167.711224,102.097709 168.840336,93.2210972 169.968602,84.3436533 C173.828236,96.2063218 177.687871,108.06899 181.547505,119.932491 L192.879257,131.51969 L181.094676,142.661644 C184.796878,150.312374 188.498233,157.963105 192.200435,165.613003 L169.310094,153.803598 L158.204334,130.851406 L166.582958,110.975153 Z" id="Stroke-51" stroke="#FFFFFF" stroke-linejoin="bevel"></path>
                <path d="M179.876161,142.322112 L191.51537,131.035734 C199.57605,127.753252 207.637565,124.469084 215.69908,121.185759 C219.05275,124.694997 222.406421,128.203392 225.760091,131.71263 L248.142415,155.186508 L236.504041,166.4712 L213.450482,177.532508 L190.844135,165.569234 L179.876161,142.322112 Z" id="Stroke-53" stroke="#FFFFFF" stroke-linejoin="bevel"></path>
                <polygon id="Stroke-55" stroke="#FFFFFF" stroke-linejoin="bevel" points="214.551084 120.61893 226.151673 109.266254 260.06192 121.525347 259.838623 133.105263 225.705913 132.424391"></polygon>
                <polygon id="Stroke-57" stroke="#FFFFFF" stroke-linejoin="bevel" points="226.470588 132.021672 249.134091 154.77709 260.919519 143.836152 261.145511 132.67785"></polygon>
                <path d="M239.473684,40.2816541 C249.772462,31.518626 265.220488,18.3742241 285.817763,0.848448388 L335.165619,1 C337.920439,29.3406203 339.975655,50.6942248 341.331269,65.0608136 L306.56271,98.5496572 L272.238654,109.266254 L272.683988,86.4948408 L239.473684,40.2816541 Z" id="Stroke-59" stroke="#FFFFFF" stroke-linejoin="bevel"></path>
                <path d="M335.208929,1.04214982 C337.908843,29.777359 339.933556,51.3287658 341.283066,65.6963704 C355.747572,65.7715022 370.210417,65.8474688 384.674923,65.9226006 C383.19985,48.1135819 381.459234,26.4727151 379.453076,1 L335.208929,1.04214982 Z" id="Stroke-61" stroke="#FFFFFF" stroke-linejoin="bevel"></path>
                <path d="M379.510334,1.1012034 C381.885123,29.5213515 383.66634,50.8364627 384.853984,65.0465367 C389.152121,72.9234198 393.450259,80.8011355 397.748396,88.6780186 L420.779798,77.7516435 L478.690662,33.3791186 L479.387125,1 L379.510334,1.1012034 Z" id="Stroke-69" stroke="#FFFFFF" stroke-linejoin="bevel"></path>
                <polygon id="Stroke-71" stroke="#FFFFFF" stroke-linejoin="bevel" points="621.775944 0.463592773 581.00597 59.4210526 501.725938 35.0161913 478.947368 34.5687869 479.600695 1.10670505"></polygon>
                <path d="M397.678019,89.998714 L420.708552,79.0325522 L478.620167,34.498452 L501.4269,34.9455899 L580.804954,59.336754 C565.56901,66.1090129 550.333067,72.8812718 535.097124,79.6535307 C519.402725,98.9155633 503.70749,118.177596 488.013091,137.439628 L454.025539,125.35604 C450.299434,121.477223 446.571659,117.59757 442.845555,113.719589 C427.789988,105.812352 412.732751,97.9059509 397.678019,89.998714 Z" id="Stroke-75" stroke="#FFFFFF" stroke-linejoin="bevel"></path>
                <path d="M330.495356,77.0368048 L342.113587,65.9226006 C356.661618,65.9981397 371.209649,66.0736788 385.758514,66.1483877 C382.420661,75.0030607 379.082809,83.8569036 375.744956,92.7115765 C368.095432,95.3405021 360.446743,97.9685976 352.797219,100.597523 C352.885672,96.6703218 352.97329,92.7439504 353.062578,88.8159189 C345.539893,84.8903776 338.018042,80.9631762 330.495356,77.0368048 Z" id="Stroke-77" stroke="#FFFFFF" stroke-linejoin="bevel"></path>
                <polygon id="Stroke-79" stroke="#FFFFFF" stroke-linejoin="bevel" points="306.656347 99.5139319 329.744654 76.7585139 352.167183 88.8177976"></polygon>
                <polygon id="Stroke-81" stroke="#FFFFFF" stroke-linejoin="bevel" points="260.508688 121.283307 272.158131 110.176703 306.656347 99.5139319 283.134912 133.056074 260.06192 143.941176"></polygon>
                <polygon id="Stroke-83" stroke="#FFFFFF" stroke-linejoin="bevel" points="282.817337 133.128141 306.306303 99.229882 352.167183 88.6780186 351.943271 100.127788 328.678218 122.576278 305.412328 145.024768"></polygon>
                <path d="M374.922601,92.4896054 C378.239596,83.6336604 381.556591,74.7785456 384.873587,65.9226006 C389.141731,73.7756412 393.409875,81.629512 397.678019,89.4825526 L386.132387,100.597523 C382.395791,100.109355 378.659196,99.6203556 374.922601,99.1313566 L374.922601,92.4896054 Z" id="Stroke-85" stroke="#FFFFFF" stroke-linejoin="bevel"></path>
                <polygon id="Stroke-87" stroke="#FFFFFF" stroke-linejoin="bevel" points="305.572755 144.583211 340.433725 111.433437 363.003096 123.145834 351.383329 134.195484 328.366627 145.024768"></polygon>
                <path d="M340.247678,111.570579 L351.916897,100.454924 C359.584906,97.9740775 367.254592,95.494061 374.922601,93.0123839 L374.922601,112.938864 C370.919714,116.410223 366.915989,119.881582 362.91394,123.352941 L340.247678,111.570579 Z" id="Stroke-89" stroke="#FFFFFF" stroke-linejoin="bevel"></path>
                <polygon id="Stroke-91" stroke="#FFFFFF" stroke-linejoin="bevel" points="328.328173 144.809963 351.306327 134.188854 396.594427 146.108359"></polygon>
                <path d="M352.167183,133.94155 C360.013246,126.799767 367.860143,119.658811 375.706207,112.517028 C398.200423,120.248727 420.694639,127.978773 443.188854,135.709646 L397.454726,146.108359 L352.167183,133.94155 Z" id="Stroke-93" stroke="#FFFFFF" stroke-linejoin="bevel"></path>
                <path d="M374.922601,99.4850968 C378.677822,99.9778807 382.433044,100.470665 386.188265,100.962612 L397.79145,89.7616099 L442.867443,113.507265 L454.024768,125.155872 L442.421583,136.356037 C419.921922,128.528388 397.422261,120.699901 374.922601,112.871415 L374.922601,99.4850968 Z" id="Stroke-95" stroke="#FFFFFF" stroke-linejoin="bevel"></path>
                <polygon id="Stroke-97" stroke="#FFFFFF" stroke-linejoin="bevel" points="488.69969 137.439628 535.154847 81.2306332 558.049536 70.2569659 556.939626 127.360849"></polygon>
                <polygon id="Stroke-99" stroke="#FFFFFF" stroke-linejoin="bevel" points="558.081777 69.5194575 581.098647 58.5495617 604.562017 24.74613 671.826625 83.1730943 580.205647 104.217469 556.965944 126.603715"></polygon>
                <path d="M431.26935,169.947368 L443.349009,135.701491 L454.981676,124.436533 C458.625292,125.928374 462.268908,127.419374 465.912523,128.910374 C465.923385,135.153725 465.933411,141.397918 465.944272,147.642111 L431.26935,169.947368 Z" id="Stroke-101" stroke="#FFFFFF" stroke-linejoin="bevel"></path>
                <path d="M431.26935,170.363983 L466.047731,148.345444 C466.036837,142.181515 466.026781,136.017587 466.015888,129.854489 C473.73045,132.385346 481.444175,134.916203 489.158738,137.44706 C492.617972,141.561053 496.076369,145.675045 499.535604,149.789037 L465.599405,171.03096 L431.26935,170.363983 Z" id="Stroke-103" stroke="#FFFFFF" stroke-linejoin="bevel"></path>
                <path d="M488.69969,136.742849 L557.323246,126.603715 L602.47678,150.482969 L534.076121,149.132599 C526.849118,150.291982 519.62128,151.450524 512.394277,152.609907 C507.942202,151.488385 503.489293,150.366021 499.037218,149.244499 C495.591098,145.077282 492.145811,140.910065 488.69969,136.742849 Z" id="Stroke-105" stroke="#FFFFFF" stroke-linejoin="bevel"></path>
                <polygon id="Stroke-107" stroke="#FFFFFF" stroke-linejoin="bevel" points="556.965944 126.705614 580.205647 104.311672 671.826625 83.2600619 602.106684 150.442724"></polygon>
                <path d="M476.780186,163.946301 C484.10826,159.08419 491.437164,154.221245 498.765238,149.359133 C503.189626,150.470259 507.614844,151.582218 512.039232,152.693343 C517.985151,161.168071 523.930241,169.641966 529.876161,178.116694 C523.337889,179.727951 516.800447,181.338374 510.262176,182.950464 C499.101236,176.615466 487.941126,170.2813 476.780186,163.946301 Z" id="Stroke-109" stroke="#FFFFFF" stroke-linejoin="bevel"></path>
                <path d="M512.5387,152.711878 C520.320388,151.594576 528.10291,150.476435 535.884598,149.359133 C542.911713,149.47145 549.938829,149.583767 556.965944,149.695246 C556.743324,161.142354 556.519871,172.587786 556.296417,184.034056 L533.524995,183.585626 C526.529563,173.294377 519.534131,163.002289 512.5387,152.711878 Z" id="Stroke-111" stroke="#FFFFFF" stroke-linejoin="bevel"></path>
                <polygon id="Stroke-113" stroke="#FFFFFF" stroke-linejoin="bevel" points="555.882353 184.034056 556.557403 149.359133 602.47678 150.265617"></polygon>
                <path d="M167.794624,52.9195046 C161.012618,56.138394 154.231443,59.3581231 147.449437,62.5770124 C139.837016,70.5549536 132.225425,78.5328947 124.613003,86.5108359 C139.421808,85.8112964 154.231443,85.1109172 169.040248,84.4113777 C168.62504,73.9140867 168.209832,63.4167957 167.794624,52.9195046 Z" id="Stroke-117" stroke="#FFFFFF" stroke-linejoin="bevel"></path>
                <polyline id="Path-2" stroke="#FFFFFF" points="671.721565 83.3710683 695.73544 0.517027864 621.346824 0.517027864"></polyline>
                <polygon id="Path-3" stroke="#FFFFFF" points="671.859185 83.6572566 703.645091 104.082783 703.645091 0.788148143 695.381171 0.788148143"></polygon>
                <path d="" id="Path-4" stroke="#979797"></path>
                <polyline id="Path-5" stroke="#FFFFFF" points="703.397586 104.005103 646.998904 108.090012 652.458926 132.363912 642.221604 150.730983 601.520265 150.730983"></polyline>
                <path d="" id="Path-7" stroke="#979797"></path>
                <polyline id="Path-8" stroke="#FFFFFF" points="702.842172 104.599367 702.842172 127.372509 652.86771 132.667735"></polyline>
                <polyline id="Path-9" stroke="#FFFFFF" points="703.564273 127.898923 688.677155 141.424595 641.86141 151.017612"></polyline>
            </g>
        </g>
    </g>
</svg>