<?xml version="1.0" encoding="UTF-8"?>
<svg width="832px" height="434px" viewBox="0 0 832 434" version="1.1" xmlns="http://www.w3.org/2000/svg" xmlns:xlink="http://www.w3.org/1999/xlink">
    <!-- Generator: Sketch 46.2 (44496) - http://www.bohemiancoding.com/sketch -->
    <title>Graphics middle</title>
    <desc>Created with Sketch.</desc>
    <defs></defs>
    <g id="Page-1" stroke="none" stroke-width="1" fill="none" fill-rule="evenodd">
        <g id="Artboard" transform="translate(-304.000000, -265.000000)" stroke="#FFFFFF">
            <g id="Graphics-middle" transform="translate(720.500000, 482.000000) scale(-1, 1) rotate(180.000000) translate(-720.500000, -482.000000) translate(305.000000, 265.000000)">
                <path d="M413.931153,1 C345.843403,55.0987988 294.731867,95.7283772 260.596545,122.888735 C260.344913,135.831744 260.092339,148.773805 259.840708,161.716814 C285.917076,144.967484 311.992501,128.216258 338.067926,111.466928 C372.833589,81.7660591 407.600195,52.0661378 442.3668,22.3652687 C444.935872,17.5264121 448.762,10.4046559 453.845184,1 L413.931153,1 Z" id="Stroke-3" stroke-linejoin="bevel"></path>
                <path d="M259.840708,161.323404 C263.88923,174.249377 267.938697,187.175351 271.988164,200.101324 C276.204902,204.465779 280.422585,208.831175 284.640268,213.19469 C293.439472,209.532723 302.237731,205.868875 311.036935,202.205967 L323.322366,189.980602 C328.309306,163.808915 333.296246,137.637229 338.283186,111.464602 C312.136008,128.083576 285.988831,144.70443 259.840708,161.323404 Z" id="Stroke-5" stroke-linejoin="bevel"></path>
                <path d="M221.313241,0.993668633 C222.639092,3.07354497 223.633498,4.63345223 224.29646,5.6733904 C197.741041,22.5521718 171.18468,39.4309531 144.628319,56.3097345 L144.628319,18.551709 C145.061008,14.6533093 145.710301,8.80583183 146.576195,1.00927644 L221.313241,0.993668633 Z" id="Stroke-7" stroke-linejoin="bevel"></path>
                <path d="M442.464602,21.9911504 C455.162632,18.2185669 467.861615,14.4459833 480.559645,10.6733998 C485.429144,10.6649115 490.298643,10.6573663 495.168142,10.6498211 C494.774571,8.48081765 494.184215,5.22735215 493.397074,0.889424642 L453.633771,1 C450.219705,7.5157748 446.496649,14.5128249 442.464602,21.9911504 Z" id="Stroke-23" stroke-linejoin="bevel"></path>
                <polygon id="Stroke-25" stroke-linejoin="bevel" points="68.175062 40.9015593 107.638532 15.8628319 120.115044 41.9122137 119.606323 67.7094043 67.4115044 79.5973451"></polygon>
                <path d="M107.858407,16.4236806 L120.979498,3.60619469 L133.597345,16.9358822 L132.926353,30.2062118 C128.69119,34.4129666 124.456969,38.6206788 120.22369,42.8274336 L107.858407,16.4236806 Z" id="Stroke-27" stroke-linejoin="bevel"></path>
                <path d="M120.619181,41.8337532 C128.621284,33.9935773 136.62433,26.1543352 144.628319,18.3141593 L144.628319,55.6705664 C136.456599,59.5603023 128.285822,63.4500382 120.115044,67.340708 L120.619181,41.8337532 Z" id="Stroke-29" stroke-linejoin="bevel"></path>
                <path d="M224.29646,6.05752212 L210.423847,57.0169444 L145.851098,68.5663717 C145.443191,64.493743 145.035284,60.4220519 144.628319,56.3503608 C171.183738,39.5863937 197.741041,22.8214892 224.29646,6.05752212 Z" id="Stroke-31" stroke-linejoin="bevel"></path>
                <path d="M67.4115044,80.5053876 L118.973609,68.5663717 L144.628319,69.07387 C131.697165,73.8064102 118.766012,78.5408475 105.834859,83.2743363 C93.0277002,82.3513534 80.2196023,81.4283705 67.4115044,80.5053876 Z" id="Stroke-33" stroke-linejoin="bevel"></path>
                <path d="M106.632743,83.2005049 C110.88464,86.90242 115.138433,90.6033946 119.390329,94.3053097 L145.5476,81.9646521 L184.656888,69.8751153 L210.814159,57.5353982 L145.801784,69.1208125 C132.744489,73.8140433 119.68909,78.5072741 106.632743,83.2005049 Z" id="Stroke-35" stroke-linejoin="bevel"></path>
                <path d="M144.628319,82.0278656 L183.849082,69.9070457 L210.081546,57.5353982 L223.070796,57.7881118 C221.961726,82.6257028 220.851704,107.464237 219.742634,132.300885 C207.43823,128.673314 195.135728,125.043858 182.831324,121.415344 L144.628319,82.0278656 Z" id="Stroke-37" stroke-linejoin="bevel"></path>
                <path d="M222.714271,57.5353982 C220.825628,81.3364035 219.6649,106.137388 219.436315,131.87156 C219.379168,138.203506 219.380105,144.475247 219.436315,150.685841 C224.292824,145.411257 229.148396,140.137614 234.003968,134.863972 L259.840708,122.520863 L248.300878,58.0386802 L222.714271,57.5353982 Z" id="Stroke-39" stroke-linejoin="bevel"></path>
                <path d="M338.157126,111.464602 C333.296491,137.150969 328.435856,162.835448 323.575221,188.521815 L362.463168,202.163717 L375.767568,189.531418 L376.278761,163.762018 L338.157126,111.464602 Z" id="Stroke-49" stroke-linejoin="bevel"></path>
                <polygon id="Stroke-55" stroke-linejoin="bevel" points="310.09292 201.52257 323.214492 188.681416 361.570796 202.547829 361.318223 215.646018 322.710287 214.875875"></polygon>
                <path d="M338.283186,110.652072 C373.016568,81.0981169 407.749009,51.5451052 442.482391,21.9911504 C444.929765,47.9220257 448.633712,83.0719851 453.594231,127.441028 L433.98607,146.898155 L411.841458,177.826414 L375.344053,188.681416 L375.847776,162.924386 L338.283186,110.652072 Z" id="Stroke-59" stroke-linejoin="bevel"></path>
                <path d="M442.464602,22.5678445 C442.464602,22.5678445 452.952729,51.3872279 473.928984,109.025995 C488.284152,108.994776 498.466825,108.994776 504.477004,109.025995 C501.974295,78.8099887 497.517643,79.2228555 495.014934,49.0068496 C490.536895,36.3236812 486.058856,23.6424012 481.580817,10.960177 C455.50334,18.698622 442.464602,22.5678445 442.464602,22.5678445 Z" id="Stroke-61" stroke-linejoin="bevel"></path>
                <path d="M495.168142,48.2394205 L523.747383,109.070907 L552.774336,102.844527 L611.639471,61.2178068 L610.380531,25.6681416 C584.777148,30.6841907 546.373018,38.2079503 495.168142,48.2394205 Z" id="Stroke-69" stroke-linejoin="bevel"></path>
                <path d="M460.849558,121.58469 L473.991084,109.013274 C490.446544,109.098718 506.902003,109.184161 523.358407,109.268665 C519.58292,119.284296 515.807433,129.298989 512.031946,139.31462 C503.379474,142.288231 494.727946,145.260903 486.075474,148.234513 C486.175524,143.792407 486.27463,139.351239 486.375625,134.908193 C477.866621,130.467964 469.358561,126.025858 460.849558,121.58469 Z" id="Stroke-77" stroke-linejoin="bevel"></path>
                <polygon id="Stroke-79" stroke-linejoin="bevel" points="433.884956 147.00885 460.000429 121.269912 485.362832 134.910318"></polygon>
                <polygon id="Stroke-81" stroke-linejoin="bevel" points="362.076142 202.274055 375.636225 188.90795 411.024877 178.001889 387.668947 215.59038 361.570796 227.902655"></polygon>
                <polygon id="Stroke-83" stroke-linejoin="bevel" points="406.920354 185.030303 433.489016 146.687557 485.362832 134.752212 485.109563 147.70319 458.794169 173.094958 432.477831 198.486726"></polygon>
                <path d="M511.10177,139.063546 C514.853665,129.046476 518.60556,119.030345 522.357455,109.013274 C527.185206,117.895947 532.012957,126.779558 536.840708,135.662231 L523.781299,148.234513 C519.554789,147.68234 515.32828,147.129227 511.10177,146.576114 L511.10177,139.063546 Z" id="Stroke-85" stroke-linejoin="bevel"></path>
                <polygon id="Stroke-87" stroke-linejoin="bevel" points="432.659292 197.987275 472.090971 160.49115 497.619469 173.73919 484.476205 186.237587 458.441725 198.486726"></polygon>
                <path d="M471.880531,160.646274 L485.079731,148.073218 C493.753112,145.267101 502.428389,142.461923 511.10177,139.654867 L511.10177,162.193959 C506.574055,166.120456 502.045391,170.046954 497.518624,173.973451 L471.880531,160.646274 Z" id="Stroke-89" stroke-linejoin="bevel"></path>
                <path d="M485.362832,185.95036 C494.237613,177.8722 503.113336,169.794974 511.988117,161.716814 C537.431606,170.462235 562.875095,179.205788 588.318584,187.950274 L536.588139,199.712389 L485.362832,185.95036 Z" id="Stroke-93" stroke-linejoin="bevel"></path>
                <path d="M511.10177,146.976234 C515.349348,147.533628 519.596926,148.091022 523.844504,148.647469 L536.969012,135.977876 L587.955031,162.836884 L600.575221,176.012769 L587.450714,188.681416 C562.001066,179.827464 536.551418,170.972565 511.10177,162.117666 L511.10177,146.976234 Z" id="Stroke-95" stroke-linejoin="bevel"></path>
                <polygon id="Stroke-97" stroke-linejoin="bevel" points="620.185841 155.588496 672.73185 92.0097975 698.628319 79.5973451 697.372886 144.188262"></polygon>
                <polygon id="Stroke-99" stroke-linejoin="bevel" points="698.664787 143.723317 724.699457 131.315131 751.239168 93.079646 829.825325 159.319173 723.689373 182.970673 697.402655 208.292035"></polygon>
                <path d="M620.185841,156.026023 L697.806803,144.557522 L758.275769,175.006088 L671.511689,170.040225 C663.337135,171.351617 655.161637,172.662059 646.987084,173.973451 C641.951287,172.704883 636.914545,171.435364 631.878748,170.166796 C627.980798,165.453205 624.083791,160.739614 620.185841,156.026023 Z" id="Stroke-105" stroke-linejoin="bevel"></path>
                <polygon id="Stroke-107" stroke-linejoin="bevel" points="697.402655 208.407295 723.689373 183.077227 830.057727 159.216908 781.152857 203.76343"></polygon>
                <path d="M647.150442,174.088792 C655.952407,172.824997 662.773042,171.13446 671.575007,169.870666 C679.523465,169.997709 690.124857,170.170365 698.073316,170.29646 C697.821508,183.244427 697.655406,195.196153 697.402655,208.143173 L670.888303,209.010475 C662.975683,197.369914 655.063063,185.728405 647.150442,174.088792 Z" id="Stroke-111" stroke-linejoin="bevel"></path>
                <path d="M257.206104,124.946903 C249.534892,128.587829 241.86462,132.229705 234.193408,135.870631 C225.582903,144.89458 216.973337,153.918529 208.362832,162.942478 C225.113256,162.15122 241.86462,161.359012 258.615044,160.567754 C258.145397,148.694137 257.675751,136.82052 257.206104,124.946903 Z" id="Stroke-117" stroke-linejoin="bevel"></path>
                <polyline id="Path-10" points="413.796448 0.752579959 365.965954 0.752579959 248.03359 58.2073482"></polyline>
                <polyline id="Path-11" points="311.349936 27.2022068 266.435908 10.631225 224.12329 6.00192949"></polyline>
                <polyline id="Path-12" points="347.998145 9.69522446 315.125217 0.825906411 286.249614 1.05892148 265.818636 10.6220855"></polyline>
                <path d="M775.363958,113.875487 C775.363958,113.875487 778.899748,91.0846586 785.971328,45.5030017 L829.272898,21.5850822 L829.921455,159.301555" id="Path-14"></path>
                <polyline id="Path-15" points="786.362285 46.2953516 681.100615 10.9243925 692.37148 46.2953516 752.012775 93.7316361"></polyline>
                <polyline id="Path-16" points="692.484322 46.7547385 646.448976 46.7547385 609.679154 103.588777"></polyline>
                <polyline id="Path-17" points="681.104257 11.5375697 592.385353 1.35571676 609.331072 25.3688407 645.7625 46.6001158"></polyline>
                <polygon id="Path-18" points="558.988313 1 532.826242 18.9912943 495.061954 10.5936724 493.405721 1"></polygon>
                <polyline id="Path-19" points="743.664764 31.8793182 709.879064 1.31764473 677.457703 1.12403147 681.156356 12.1323198"></polyline>
                <path d="M677.434147,1 L591.949369,1" id="Path-20"></path>
                <path d="M591.989579,1 C569.970471,1 558.960918,1 558.960918,1" id="Path-21"></path>
                <polygon id="Path-22" points="120.540264 1 84.8286308 1 49.6191096 22.8722706 68.0006257 40.9911354 108.198999 16.0984255 121.128004 3.88444756"></polygon>
                <polyline id="Path-23" points="50.0283148 22.5669043 27.3079628 32.9365389 41.2223714 63.5730777 67.3955638 80.5841334"></polyline>
                <polygon id="Path-24" points="64.8851873 12.5979578 38.8923065 9.32423871 22.944154 23.4623152 27.2053747 32.9966392 49.8951081 22.5173272"></polygon>
                <polygon id="Path-25" points="38.648385 9.50620846 15.0860763 11.4095683 0.115527433 21.0056437 4.38027232 26.125255 22.9621962 23.4730204"></polygon>
                <polygon id="Path-26" points="829.204052 21.548463 829.297688 0.911808104 789.658023 0.954852723 784.735233 46.3758221"></polygon>
                <path d="M789.832897,1 L709.687133,1.30275964" id="Path-27"></path>
                <path d="M713.627186,63.9770131 L698.118243,80.3371214" id="Path-29"></path>
                <polyline id="Path-30" points="656.664349 110.46029 609.744817 102.921822 579.141675 83.882069 552.650518 102.921822 546.865295 140.767167 585.502902 134.896053 587.382271 162.326331 620.150465 155.650745 609.744817 102.921822 585.502902 134.896053 565.278119 94.6847344"></polyline>
                <path d="M536.552476,199.773973 L604.998828,223.191691 L660.240552,248.518001 L676.292518,280.319386 L759.781404,310.022734 L793.163386,387.285368 L829.921455,433.985081 L829.921455,159.130859 L807.209313,238.934604 L781.842399,204.337237 L756.564862,271.670553 L712.873783,277.331019 L702.381633,227.902655 L633.033005,186.873438 L601.022987,175.777017 L604.998828,223.191691 L671.66044,208.427035 L676.292518,280.319386 C699.672999,278.076512 711.866754,277.08039 712.873783,277.331019 C716.980484,278.353092 724.422872,281.498688 735.200946,286.767806 L735.200946,300.932126 L769.987484,283.812612 L759.781404,310.022734 L783.662513,315.923443 L787.938895,324.349314 L793.163386,349.88685 L786.874738,369.450777 L816.763585,352.008454 L829.64559,319.916615 L788.529243,324.12593 L802.341248,298.31518" id="Path-32"></path>
                <path d="M769.914107,283.899292 L808.121209,238.622363 L829.720174,246.112906 L829.720174,319.914698 C817.952457,309.425094 808.827323,302.233132 802.344772,298.338812 C801.990224,298.125822 791.180003,293.312648 769.914107,283.899292 Z" id="Path-35"></path>
                <polygon id="Path-36" points="817.102468 353.455174 817.682405 384.673669 812.302781 411.355561 829.528692 411.355561 829.834805 381.973652"></polygon>
                <polyline id="Path-37" points="537.49612 200.099999 545.120703 221.60125 584.063722 253.163309 618.932086 248.835216 605.142872 223.140624 633.085396 275.539995 678.164441 280.598535"></polyline>
            </g>
        </g>
    </g>
</svg>